<svg xmlns="http://www.w3.org/2000/svg" viewBox="0 0 600 272" width="600" height="272">
<style>
  @keyframes pastry-trip {
    0%    { transform: translate(192px,   0); }
    8%    { transform: translate(140px,  -3px); }
    16%   { transform: translate(80px,    0); }
    24%   { transform: translate(30px,   -3px); }
    30%   { transform: translate(0,       0); }
    36%   { transform: translate(0,      -4px); }
    42%   { transform: translate(0,       0); }
    48%   { transform: translate(0,      -4px); }
    54%   { transform: translate(0,       0); }
    58%   { transform: translate(-10px,  -2px); }
    65%   { transform: translate(-10px,   0); }
    72%   { transform: translate(0,       0); }
    79%   { transform: translate(40px,   -3px); }
    86%   { transform: translate(100px,   0); }
    93%   { transform: translate(160px,  -3px); }
    100%  { transform: translate(240px,   0); }
  }
  @keyframes box-life {
    0%    { transform: translateX(-64px); opacity: 0; }
    28%   { transform: translateX(-64px); opacity: 0; }
    42%   { transform: translateX(4px);   opacity: 1; }
    47%   { transform: translateX(-2px);  opacity: 1; }
    52%   { transform: translateX(0);     opacity: 1; }
    56%   { transform: translateX(0);     opacity: 1; }
    65%   { transform: translateX(16px);  opacity: 0; }
    100%  { transform: translateX(16px);  opacity: 0; }
  }
  @keyframes steam {
    0%   { opacity: 0; transform: translateY(0) scale(1); }
    40%  { opacity: 0.8; }
    100% { opacity: 0; transform: translateY(-28px) scale(1.4); }
  }
  @keyframes txt-fade-out {
    0%   { opacity: 1; } 68%  { opacity: 1; } 82%  { opacity: 0; } 100% { opacity: 0; }
  }
  @keyframes txt-fade-in {
    0%   { opacity: 0; } 74%  { opacity: 0; } 90%  { opacity: 1; } 100% { opacity: 1; }
  }
  .s1 { animation: steam 2.6s ease-out 1; }
  .s2 { animation: steam 2.6s ease-out 0.9s 1; }
  .s3 { animation: steam 0s; }
  #customer { animation: pastry-trip 6s cubic-bezier(.4,0,.6,1) forwards; }
  #box      { animation: box-life    6s ease-in-out forwards; }
  .txt-a    { animation: txt-fade-out 6s ease-in-out forwards; }
  .txt-b    { animation: txt-fade-in  6s ease-in-out forwards; }
</style>
<rect x="0" y="0" width="600" height="168" fill="#4A6B4A"/>
<rect x="0" y="0" width="8" height="168" fill="#3A5439"/>
<rect x="96" y="0" width="8" height="168" fill="#3A5439"/>
<rect x="192" y="0" width="8" height="168" fill="#3A5439"/>
<rect x="288" y="0" width="8" height="168" fill="#3A5439"/>
<rect x="384" y="0" width="8" height="168" fill="#3A5439"/>
<rect x="480" y="0" width="8" height="168" fill="#3A5439"/>
<rect x="576" y="0" width="8" height="168" fill="#3A5439"/>
<rect x="0" y="168" width="600" height="104" fill="#4A2E18"/>
<rect x="0" y="168" width="600" height="8" fill="#3B2010"/>
<rect x="0" y="192" width="600" height="8" fill="#3B2010"/>
<rect x="0" y="216" width="600" height="8" fill="#3B2010"/>
<rect x="0" y="240" width="600" height="8" fill="#3B2010"/>
<rect x="0" y="264" width="600" height="8" fill="#3B2010"/>
<rect x="24" y="8" width="176" height="136" fill="#5C3A1E"/>
<rect x="32" y="16" width="160" height="120" fill="#A8D0E8"/>
<rect x="48" y="24" width="40" height="16" fill="#E8F4F8"/>
<rect x="112" y="32" width="48" height="16" fill="#E8F4F8"/>
<rect x="80" y="40" width="24" height="8" fill="#E8F4F8"/>
<rect x="112" y="16" width="8" height="120" fill="#5C3A1E"/>
<rect x="32" y="80" width="160" height="8" fill="#5C3A1E"/>
<rect x="16" y="144" width="192" height="8" fill="#5C3A1E"/>
<rect x="400" y="8" width="192" height="8" fill="#3A5A40"/>
<rect x="400" y="8" width="192" height="112" fill="#2E4A35"/>
<rect x="400" y="112" width="192" height="8" fill="#3A5A40"/>
<rect x="400" y="8" width="8" height="112" fill="#3A5A40"/>
<rect x="584" y="8" width="8" height="112" fill="#3A5A40"/>
<text x="496" y="40" font-family="monospace" font-size="12" font-weight="bold" fill="#A8E8B0" text-anchor="middle">MENU</text>
<line x1="408" y1="48" x2="584" y2="48" stroke="#6A9A70" stroke-width="1"/>
<text x="424" y="72" font-family="monospace" font-size="10" font-weight="normal" fill="#D8F0D8" text-anchor="start">&#9749; Coffee</text>
<text x="424" y="96" font-family="monospace" font-size="10" font-weight="normal" fill="#D8F0D8" text-anchor="start">&#129360; Pastry</text>
<rect x="16" y="152" width="568" height="16" fill="#3E2210"/>
<rect x="16" y="152" width="568" height="8" fill="#C8822A"/>
<rect x="16" y="168" width="568" height="40" fill="#5C3A1E"/>
<rect x="16" y="200" width="568" height="8" fill="#3E2210"/>
<rect x="56" y="72" width="96" height="88" fill="#9A9A9A"/>
<rect x="64" y="56" width="80" height="24" fill="#6A6A6A"/>
<rect x="72" y="48" width="56" height="16" fill="#6A6A6A"/>
<rect x="144" y="72" width="8" height="88" fill="#C8C8C8"/>
<rect x="72" y="80" width="40" height="32" fill="#1A1A1A"/>
<rect x="80" y="88" width="16" height="8" fill="#4A7A3A"/>
<rect x="104" y="88" width="8" height="8" fill="#C03020"/>
<rect x="80" y="104" width="16" height="8" fill="#4A7A3A"/>
<rect x="56" y="96" width="8" height="40" fill="#6A6A6A"/>
<rect x="72" y="128" width="40" height="32" fill="#6A6A6A"/>
<rect x="80" y="144" width="24" height="16" fill="#6A6A6A"/>
<rect x="64" y="152" width="56" height="8" fill="#6A6A6A"/>
<ellipse cx="96"     cy="136" rx="4" ry="3" fill="#E0EDE0" class="s1" opacity="0"/>
<ellipse cx="103" cy="136" rx="3" ry="2" fill="#E0EDE0" class="s2" opacity="0"/>
<ellipse cx="90" cy="136" rx="3" ry="2" fill="#E0EDE0" class="s3" opacity="0"/>
<rect x="360" y="96" width="144" height="64" fill="#8B5E2A"/>
<rect x="368" y="104" width="128" height="48" fill="#C0DCC8"/>
<rect x="376" y="128" width="112" height="8" fill="#5C3A1E"/>
<rect x="384" y="112" width="32" height="16" fill="#E8C070"/>
<rect x="392" y="104" width="16" height="8" fill="#C8980A"/>
<rect x="424" y="104" width="24" height="8" fill="#A05020"/>
<rect x="424" y="112" width="24" height="16" fill="#7B3A10"/>
<rect x="456" y="112" width="32" height="16" fill="#D4A860"/>
<rect x="384" y="136" width="24" height="16" fill="#7B3A10"/>
<rect x="416" y="136" width="32" height="16" fill="#E8C070"/>
<rect x="456" y="136" width="32" height="16" fill="#D4A860"/>
<rect x="216" y="80" width="40" height="16" fill="#2A1005"/>
<rect x="216" y="96" width="40" height="24" fill="#F5C8A0"/>
<rect x="208" y="96" width="8" height="16" fill="#F5C8A0"/>
<rect x="256" y="96" width="8" height="16" fill="#F5C8A0"/>
<rect x="224" y="104" width="8" height="8" fill="#444444"/>
<rect x="240" y="104" width="8" height="8" fill="#444444"/>
<rect x="216" y="120" width="40" height="8" fill="#E8F0E0"/>
<rect x="208" y="128" width="56" height="32" fill="#2E5038"/>
<rect x="224" y="128" width="24" height="8" fill="#E8F0E0"/>
<rect x="200" y="136" width="16" height="16" fill="#F5C8A0"/>
<rect x="264" y="136" width="16" height="16" fill="#F5C8A0"/>
<g id="box">
<rect x="320" y="136" width="40" height="16" fill="#F4E3C1"/>
<rect x="312" y="128" width="56" height="8" fill="#E8D0A8"/>
<rect x="312" y="136" width="56" height="8" fill="#E87060"/>
<rect x="336" y="128" width="8" height="24" fill="#E87060"/>
<rect x="328" y="120" width="8" height="8" fill="#E87060"/>
<rect x="344" y="120" width="8" height="8" fill="#E87060"/>
</g>
<g id="customer">
<rect x="496" y="96" width="40" height="16" fill="#D4A520"/>
<rect x="496" y="112" width="40" height="24" fill="#F5C8A0"/>
<rect x="488" y="112" width="8" height="16" fill="#F5C8A0"/>
<rect x="536" y="112" width="8" height="16" fill="#F5C8A0"/>
<rect x="504" y="120" width="8" height="8" fill="#444444"/>
<rect x="520" y="120" width="8" height="8" fill="#444444"/>
<rect x="488" y="136" width="56" height="24" fill="#F0C830"/>
<rect x="496" y="160" width="40" height="24" fill="#5C3A1E"/>
<rect x="496" y="176" width="16" height="8" fill="#222222"/>
<rect x="520" y="176" width="16" height="8" fill="#222222"/>
</g>
<rect x="0" y="240" width="600" height="32" fill="rgba(0,0,0,0.62)"/>
<text x="300" y="262" font-family="monospace" font-size="13" font-weight="bold" fill="white" text-anchor="middle" class="txt-a">🥐 One pastry, coming right up!</text>
<text x="300" y="262" font-family="monospace" font-size="13" font-weight="bold" fill="white" text-anchor="middle" class="txt-b" opacity="0">Enjoy! See you next time 🥐</text>
</svg>